<mxfile host="app.diagrams.net" modified="2021-01-20T06:21:00.902Z" agent="5.0 (Windows)" etag="4KVY3PV5Z8lcZGibPGEW" version="14.2.5" type="github">
  <diagram name="Page-1" id="822b0af5-4adb-64df-f703-e8dfc1f81529">
    <mxGraphModel dx="3230" dy="865" grid="1" gridSize="10" guides="1" tooltips="1" connect="1" arrows="1" fold="1" page="1" pageScale="1" pageWidth="1100" pageHeight="850" background="#ffffff" math="0" shadow="0">
      <root>
        <mxCell id="0" />
        <mxCell id="1" parent="0" />
        <mxCell id="K7k0_T_SSJ15ffRAY8dM-1" value="" style="image;html=1;image=img/lib/clip_art/computers/Server_128x128.png" parent="1" vertex="1">
          <mxGeometry x="548" y="222.5" width="80" height="80" as="geometry" />
        </mxCell>
        <mxCell id="K7k0_T_SSJ15ffRAY8dM-4" value="" style="rounded=1;arcSize=10;dashed=0;strokeColor=#ff0000;fillColor=none;gradientColor=none;dashPattern=8 4;strokeWidth=2;" parent="1" vertex="1">
          <mxGeometry x="280" y="167" width="730" height="214" as="geometry" />
        </mxCell>
        <mxCell id="K7k0_T_SSJ15ffRAY8dM-20" value="" style="image;html=1;image=img/lib/clip_art/networking/Router_Icon_128x128.png" parent="1" vertex="1">
          <mxGeometry x="540" y="345" width="80" height="80" as="geometry" />
        </mxCell>
        <mxCell id="K7k0_T_SSJ15ffRAY8dM-37" value="" style="line;strokeWidth=4;direction=south;html=1;perimeter=backbonePerimeter;points=[];outlineConnect=0;" parent="1" vertex="1">
          <mxGeometry x="575.75" y="567" width="10" height="80" as="geometry" />
        </mxCell>
        <mxCell id="K7k0_T_SSJ15ffRAY8dM-42" value="Test Server" style="text;html=1;align=center;verticalAlign=middle;resizable=0;points=[];autosize=1;" parent="1" vertex="1">
          <mxGeometry x="-220" y="50" width="70" height="20" as="geometry" />
        </mxCell>
        <mxCell id="K7k0_T_SSJ15ffRAY8dM-47" value="DSM Server" style="text;html=1;align=center;verticalAlign=middle;resizable=0;points=[];autosize=1;" parent="1" vertex="1">
          <mxGeometry x="538" y="214" width="80" height="20" as="geometry" />
        </mxCell>
        <mxCell id="K7k0_T_SSJ15ffRAY8dM-48" value="" style="shape=partialRectangle;whiteSpace=wrap;html=1;bottom=1;right=1;left=1;top=0;fillColor=none;routingCenterX=-0.5;rotation=-180;" parent="1" vertex="1">
          <mxGeometry x="520" y="647" width="120" height="60" as="geometry" />
        </mxCell>
        <mxCell id="K7k0_T_SSJ15ffRAY8dM-63" value="" style="aspect=fixed;html=1;points=[];align=center;image;fontSize=12;image=img/lib/azure2/management_governance/User_Privacy.svg;" parent="1" vertex="1">
          <mxGeometry x="754" y="707" width="54" height="57.38" as="geometry" />
        </mxCell>
        <mxCell id="K7k0_T_SSJ15ffRAY8dM-65" value="" style="line;strokeWidth=4;html=1;perimeter=backbonePerimeter;points=[];outlineConnect=0;rotation=-90;" parent="1" vertex="1">
          <mxGeometry x="546.78" y="320.13" width="68.44" height="10" as="geometry" />
        </mxCell>
        <mxCell id="K7k0_T_SSJ15ffRAY8dM-77" value="阿里云" style="text;html=1;align=center;verticalAlign=middle;resizable=0;points=[];autosize=1;" parent="1" vertex="1">
          <mxGeometry x="945" y="168" width="50" height="20" as="geometry" />
        </mxCell>
        <mxCell id="LT4MtrfiTBPNFRV7zYf9-2" value="" style="aspect=fixed;perimeter=ellipsePerimeter;html=1;align=center;shadow=0;dashed=0;spacingTop=3;image;image=img/lib/active_directory/user_accounts.svg;" vertex="1" parent="1">
          <mxGeometry x="387" y="760.62" width="50" height="48.5" as="geometry" />
        </mxCell>
        <mxCell id="LT4MtrfiTBPNFRV7zYf9-5" value="" style="pointerEvents=1;shadow=0;dashed=0;html=1;strokeColor=none;fillColor=#505050;labelPosition=center;verticalLabelPosition=bottom;verticalAlign=top;outlineConnect=0;align=center;shape=mxgraph.office.devices.mac_client;" vertex="1" parent="1">
          <mxGeometry x="490.75" y="707" width="58" height="48" as="geometry" />
        </mxCell>
        <mxCell id="LT4MtrfiTBPNFRV7zYf9-6" value="" style="shape=image;html=1;verticalAlign=top;verticalLabelPosition=bottom;labelBackgroundColor=#ffffff;imageAspect=0;aspect=fixed;image=https://cdn1.iconfinder.com/data/icons/computer-techologies-outline-free/128/ic_windows_10_pc-128.png" vertex="1" parent="1">
          <mxGeometry x="387" y="705" width="52" height="52" as="geometry" />
        </mxCell>
        <mxCell id="LT4MtrfiTBPNFRV7zYf9-7" value="" style="aspect=fixed;perimeter=ellipsePerimeter;html=1;align=center;shadow=0;dashed=0;spacingTop=3;image;image=img/lib/active_directory/user_accounts.svg;" vertex="1" parent="1">
          <mxGeometry x="490.75" y="761.62" width="50" height="48.5" as="geometry" />
        </mxCell>
        <mxCell id="LT4MtrfiTBPNFRV7zYf9-8" value="" style="shape=image;html=1;verticalAlign=top;verticalLabelPosition=bottom;labelBackgroundColor=#ffffff;imageAspect=0;aspect=fixed;image=https://cdn4.iconfinder.com/data/icons/logos-brands-5/24/nginx-128.png" vertex="1" parent="1">
          <mxGeometry x="542" y="490" width="78" height="78" as="geometry" />
        </mxCell>
        <mxCell id="LT4MtrfiTBPNFRV7zYf9-9" value="" style="line;strokeWidth=4;direction=south;html=1;perimeter=backbonePerimeter;points=[];outlineConnect=0;" vertex="1" parent="1">
          <mxGeometry x="575.75" y="410" width="10" height="80" as="geometry" />
        </mxCell>
        <mxCell id="LT4MtrfiTBPNFRV7zYf9-10" value="审计" style="text;html=1;strokeColor=none;fillColor=none;align=center;verticalAlign=middle;whiteSpace=wrap;rounded=0;" vertex="1" parent="1">
          <mxGeometry x="758" y="786" width="40" height="20" as="geometry" />
        </mxCell>
        <mxCell id="LT4MtrfiTBPNFRV7zYf9-11" value="" style="shape=image;html=1;verticalAlign=top;verticalLabelPosition=bottom;labelBackgroundColor=#ffffff;imageAspect=0;aspect=fixed;image=https://cdn1.iconfinder.com/data/icons/web-55/32/web_3-128.png" vertex="1" parent="1">
          <mxGeometry x="615" y="708" width="58" height="58" as="geometry" />
        </mxCell>
        <mxCell id="LT4MtrfiTBPNFRV7zYf9-13" value="" style="shape=partialRectangle;whiteSpace=wrap;html=1;bottom=1;right=1;left=1;top=0;fillColor=none;routingCenterX=-0.5;rotation=-180;" vertex="1" parent="1">
          <mxGeometry x="410" y="647" width="370" height="60" as="geometry" />
        </mxCell>
        <mxCell id="LT4MtrfiTBPNFRV7zYf9-19" value="Windows用户" style="text;html=1;strokeColor=none;fillColor=none;align=center;verticalAlign=middle;whiteSpace=wrap;rounded=0;" vertex="1" parent="1">
          <mxGeometry x="374" y="804" width="83" height="20" as="geometry" />
        </mxCell>
        <mxCell id="LT4MtrfiTBPNFRV7zYf9-20" value="Mac用户" style="text;html=1;strokeColor=none;fillColor=none;align=center;verticalAlign=middle;whiteSpace=wrap;rounded=0;" vertex="1" parent="1">
          <mxGeometry x="481" y="806" width="64" height="20" as="geometry" />
        </mxCell>
        <mxCell id="LT4MtrfiTBPNFRV7zYf9-21" value="管理员" style="text;html=1;strokeColor=none;fillColor=none;align=center;verticalAlign=middle;whiteSpace=wrap;rounded=0;" vertex="1" parent="1">
          <mxGeometry x="624" y="784" width="40" height="20" as="geometry" />
        </mxCell>
        <mxCell id="LT4MtrfiTBPNFRV7zYf9-24" value="" style="rounded=1;arcSize=10;dashed=1;strokeColor=#ff0000;fillColor=none;gradientColor=none;dashPattern=8 4;strokeWidth=2;" vertex="1" parent="1">
          <mxGeometry x="279" y="598.87" width="730" height="264.25" as="geometry" />
        </mxCell>
        <mxCell id="LT4MtrfiTBPNFRV7zYf9-27" value="办公区" style="text;html=1;strokeColor=none;fillColor=none;align=center;verticalAlign=middle;whiteSpace=wrap;rounded=0;" vertex="1" parent="1">
          <mxGeometry x="959" y="627" width="40" height="20" as="geometry" />
        </mxCell>
        <mxCell id="LT4MtrfiTBPNFRV7zYf9-29" value="" style="image;html=1;image=img/lib/clip_art/networking/Firewall_128x128.png" vertex="1" parent="1">
          <mxGeometry x="410.75" y="345" width="80" height="80" as="geometry" />
        </mxCell>
        <mxCell id="LT4MtrfiTBPNFRV7zYf9-32" value="172.20.24.208" style="text;html=1;strokeColor=none;fillColor=none;align=center;verticalAlign=middle;whiteSpace=wrap;rounded=0;" vertex="1" parent="1">
          <mxGeometry x="660" y="253" width="40" height="20" as="geometry" />
        </mxCell>
      </root>
    </mxGraphModel>
  </diagram>
</mxfile>
